<?xml version="1.0" standalone="no"?>
<!DOCTYPE svg PUBLIC "-//W3C//DTD SVG 20010904//EN"
 "http://www.w3.org/TR/2001/REC-SVG-20010904/DTD/svg10.dtd">
<svg version="1.0" xmlns="http://www.w3.org/2000/svg"
 width="54.000000pt" height="272.000000pt" viewBox="0 0 54.000000 272.000000"
 preserveAspectRatio="xMidYMid meet">
<g transform="translate(0.000000,272.000000) scale(0.100000,-0.100000)"
fill="#0080C0" stroke="none">
<path d="M112 2568 c3 -30 7 -33 58 -48 60 -17 59 -21 -13 -40 -45 -12 -48
-15 -45 -44 l3 -31 138 -3 137 -3 0 26 0 25 -102 1 c-57 0 -98 2 -93 4 6 2 29
9 53 15 36 9 43 15 40 33 -2 16 -14 24 -48 33 -44 12 -42 12 53 13 97 1 97 1
97 26 l0 25 -141 0 -140 0 3 -32z"/>
<path d="M163 2355 c-36 -15 -53 -41 -53 -80 0 -69 51 -99 156 -93 64 3 78 7
100 29 29 30 36 88 13 116 -35 41 -151 57 -216 28z"/>
<path d="M116 2114 c-11 -29 -6 -79 10 -102 48 -69 209 -70 252 -1 14 22 19
90 8 108 -4 6 -18 11 -32 11 -22 0 -24 -3 -18 -22 11 -35 7 -61 -12 -75 -25
-18 -115 -16 -142 3 -24 17 -30 62 -10 82 9 9 5 12 -19 12 -19 0 -33 -6 -37
-16z"/>
<path d="M112 1588 c3 -77 5 -83 26 -86 19 -3 22 1 22 27 l0 31 89 0 90 0 3
-27 c2 -20 9 -29 26 -31 21 -3 22 -1 22 82 0 85 0 86 -25 86 -21 0 -25 -5 -25
-30 l0 -31 -87 3 c-88 3 -88 3 -91 31 -3 21 -9 27 -28 27 -25 0 -25 -1 -22
-82z"/>
<path d="M263 1435 c-12 -8 -29 -35 -38 -59 -10 -25 -24 -47 -33 -51 -20 -8
-44 22 -37 47 3 10 8 27 11 38 4 16 1 20 -19 20 -17 0 -27 -7 -31 -22 -20 -75
11 -138 68 -138 42 0 60 15 87 73 19 41 25 48 48 45 32 -4 40 -42 16 -87 l-16
-31 30 0 c34 0 41 13 41 81 0 40 -5 55 -25 74 -28 29 -70 32 -102 10z"/>
<path d="M110 1195 l0 -25 103 0 c56 0 107 -4 113 -8 17 -11 22 -35 12 -54 -7
-16 -24 -18 -119 -18 l-110 0 3 -27 c3 -26 6 -28 58 -31 30 -2 83 -1 118 3 80
8 102 29 102 96 0 39 -5 51 -26 68 -23 18 -41 21 -140 21 l-114 0 0 -25z"/>
<path d="M263 975 c-12 -8 -29 -35 -38 -59 -10 -25 -23 -47 -31 -50 -18 -7
-46 22 -40 43 19 63 19 71 -3 71 -46 0 -58 -104 -16 -145 35 -35 76 -33 109 6
14 17 26 37 26 45 0 8 9 23 20 34 16 16 25 18 40 10 24 -13 25 -38 6 -85 l-15
-35 29 0 c26 0 30 4 38 43 10 52 0 104 -25 122 -24 19 -73 19 -100 0z"/>
<path d="M110 751 c0 -25 9 -37 50 -68 28 -20 50 -41 50 -45 0 -4 -22 -8 -50
-8 -47 0 -50 -2 -50 -25 l0 -25 140 0 140 0 0 25 c0 23 -4 25 -43 25 -24 0
-51 6 -62 13 -17 13 -13 17 43 48 54 29 62 38 62 62 0 33 4 34 -93 -18 l-75
-40 -44 34 c-23 19 -49 39 -55 44 -10 7 -13 2 -13 -22z"/>
<path d="M258 513 c-9 -10 -25 -37 -37 -60 -37 -74 -89 -45 -57 31 l15 36 -28
0 c-31 0 -41 -18 -41 -78 0 -47 14 -69 55 -82 47 -15 71 0 105 66 27 52 54 64
74 32 8 -14 7 -29 -5 -63 l-17 -45 24 0 c25 0 41 21 44 60 5 54 -1 81 -20 100
-26 26 -91 27 -112 3z"/>
<path d="M238 283 l-128 -36 0 -33 c0 -31 3 -34 43 -44 23 -6 82 -22 132 -36
50 -13 93 -24 98 -24 4 0 7 11 7 25 0 19 -7 26 -32 33 -29 7 -33 13 -36 45 -3
33 -1 37 30 45 26 6 34 14 36 35 4 33 7 34 -150 -10z"/>
</g>
</svg>
