<?xml version="1.0" encoding="UTF-8" standalone="no"?>
<svg
   xmlns:dc="http://purl.org/dc/elements/1.1/"
   xmlns:cc="http://creativecommons.org/ns#"
   xmlns:rdf="http://www.w3.org/1999/02/22-rdf-syntax-ns#"
   xmlns:svg="http://www.w3.org/2000/svg"
   xmlns="http://www.w3.org/2000/svg"
   xmlns:sodipodi="http://sodipodi.sourceforge.net/DTD/sodipodi-0.dtd"
   xmlns:inkscape="http://www.inkscape.org/namespaces/inkscape"
   version="1.0"
   width="291pt"
   height="278.10001pt"
   viewBox="0 0 291 278.10001"
   preserveAspectRatio="xMidYMid meet"
   id="svg2"
   inkscape:version="0.91 r13725"
   sodipodi:docname="SUSI_Letter_S_Blue.svg">
  <metadata
     id="metadata22">
    <rdf:RDF>
      <cc:Work
         rdf:about="">
        <dc:format>image/svg+xml</dc:format>
        <dc:type
           rdf:resource="http://purl.org/dc/dcmitype/StillImage" />
        <dc:title></dc:title>
      </cc:Work>
    </rdf:RDF>
  </metadata>
  <defs
     id="defs20" />
  <sodipodi:namedview
     pagecolor="#ffffff"
     bordercolor="#666666"
     borderopacity="1"
     objecttolerance="10"
     gridtolerance="10"
     guidetolerance="10"
     inkscape:pageopacity="0"
     inkscape:pageshadow="2"
     inkscape:window-width="1191"
     inkscape:window-height="798"
     id="namedview18"
     showgrid="false"
     fit-margin-top="0"
     fit-margin-left="0"
     fit-margin-right="0"
     fit-margin-bottom="0"
     inkscape:zoom="0.32960663"
     inkscape:cx="592.5"
     inkscape:cy="173.875"
     inkscape:window-x="169"
     inkscape:window-y="95"
     inkscape:window-maximized="0"
     inkscape:current-layer="svg2" />
  <path
     style="fill:#0080c0;stroke:none"
     inkscape:connector-curvature="0"
     id="path6"
     d="M 118.5,0.7 C 91.7,4 64.3,17.5 42.6,38.1 30.8,49.2 22.2,61 14.5,76.5 5.6,94.3 1.7,108.6 0.8,127.5 l -0.3,6 39,0 39,0 0.3,-4 C 79.5,117.4 85.6,105.4 96,95 c 8.5,-8.4 16.2,-13.4 25.9,-16.7 l 6.6,-2.2 81.3,-0.1 81.2,0 0,-38 0,-38 -84.7,0.1 c -46.7,0.1 -86.1,0.4 -87.8,0.6 z" />
  <path
     style="fill:#0080c0;stroke:none"
     inkscape:connector-curvature="0"
     id="path14"
     d="m 213.5,145.2 c -0.2,0.7 -0.9,4.2 -1.5,7.7 -3.4,19.5 -19.4,38 -40,46.4 l -5.5,2.2 -83,0.5 -83,0.5 -0.3,37.8 -0.2,37.8 89.2,-0.3 89.3,-0.3 9.6,-2.7 c 57.7,-16.3 100.1,-67.4 102.1,-123.3 l 0.3,-7 -38.3,-0.3 c -30.1,-0.2 -38.3,0 -38.7,1 z" />
</svg>
