<?xml version="1.0" encoding="UTF-8" standalone="no"?>
<svg
   xmlns:dc="http://purl.org/dc/elements/1.1/"
   xmlns:cc="http://creativecommons.org/ns#"
   xmlns:rdf="http://www.w3.org/1999/02/22-rdf-syntax-ns#"
   xmlns:svg="http://www.w3.org/2000/svg"
   xmlns="http://www.w3.org/2000/svg"
   xmlns:sodipodi="http://sodipodi.sourceforge.net/DTD/sodipodi-0.dtd"
   xmlns:inkscape="http://www.inkscape.org/namespaces/inkscape"
   version="1.0"
   width="233.60001pt"
   height="279.18771pt"
   viewBox="0 0 233.60001 279.18771"
   preserveAspectRatio="xMidYMid meet"
   id="svg2"
   inkscape:version="0.91 r13725"
   sodipodi:docname="SUSI_Letter_A_Blue.svg">
  <metadata
     id="metadata22">
    <rdf:RDF>
      <cc:Work
         rdf:about="">
        <dc:format>image/svg+xml</dc:format>
        <dc:type
           rdf:resource="http://purl.org/dc/dcmitype/StillImage" />
        <dc:title></dc:title>
      </cc:Work>
    </rdf:RDF>
  </metadata>
  <defs
     id="defs20" />
  <sodipodi:namedview
     pagecolor="#ffffff"
     bordercolor="#666666"
     borderopacity="1"
     objecttolerance="10"
     gridtolerance="10"
     guidetolerance="10"
     inkscape:pageopacity="0"
     inkscape:pageshadow="2"
     inkscape:window-width="1288"
     inkscape:window-height="1013"
     id="namedview18"
     showgrid="false"
     fit-margin-top="0"
     fit-margin-left="0"
     fit-margin-right="0"
     fit-margin-bottom="0"
     inkscape:zoom="1.8645367"
     inkscape:cx="162.8021"
     inkscape:cy="175.23464"
     inkscape:window-x="444"
     inkscape:window-y="0"
     inkscape:window-maximized="0"
     inkscape:current-layer="svg2" />
  <path
     style="fill:#0080c0"
     d="M 105.86324,-6.2297981e-4 104.4851,1.1931271 c -0.75808,0.655973 -1.85334,1.6116282 -2.43284,2.1250002 -0.5795,0.513369 -1.75422,1.5397165 -2.610951,2.2812502 -1.51646,1.3125457 -1.579431,1.4062977 -2.400016,3.526563 C 96.577689,10.323804 96.124276,11.491527 96.033476,11.719691 65.485342,94.650192 34.416966,177.43776 0,271.35253 c 0,0.082 1.607356,1.87519 3.5718995,3.98438 l 3.5718994,3.83594 33.4705421,-0.0438 33.470541,-0.0422 c 12.282358,-35.59866 25.129586,-72.47367 37.398698,-107.27339 0.056,-0.24757 0.27935,-0.64398 0.49688,-0.88125 0.37323,-0.40719 0.60982,-0.43125 4.20159,-0.43125 3.62672,0 3.82799,0.0202 4.27816,0.45 0.25981,0.24804 0.47344,0.58841 0.47344,0.75469 3.36807,11.31131 7.2266,22.7346 10.80944,34.88594 0.13607,0.27414 3.90435,0.31776 31.75178,0.36406 29.8686,0.0496 31.62035,0.0328 31.99866,-0.31094 0.22013,-0.20002 1.23082,-1.34433 2.24689,-2.54218 1.01605,-1.19787 2.19928,-2.54192 2.62814,-2.98751 0.42887,-0.44557 0.77969,-0.93382 0.77969,-1.08437 C 180.25188,137.09375 160.02444,76.390903 137.45563,6.9478152 l -3.41096,-3.4734379 -3.41253,-3.47500027981 -12.38446,0 -12.38444,0 z M 159.88235,211.98534 c -20.46776,1.8e-4 -42.11121,0.0618 -48.09564,0.1375 l -10.87977,0.1375 0.0984,3.85625 c 0.10766,4.2078 0.4405,7.11411 1.13595,9.92187 0.1201,0.48485 0.3046,1.23157 0.40937,1.65938 0.10479,0.4278 0.28807,1.12688 0.40783,1.55469 0.11974,0.42781 0.30053,1.08235 0.40156,1.45313 0.62313,2.28906 2.07561,6.33679 3.13751,8.74218 3.70966,8.40305 7.08226,13.37167 12.62978,18.60625 4.93566,4.65731 8.54324,7.15717 15.42041,10.68282 4.23835,2.17282 8.68102,4.03363 12.6126,5.28281 0.78581,0.24967 1.61298,0.52484 1.8375,0.61094 0.22452,0.0861 0.79949,0.26045 1.27658,0.3875 0.47711,0.12708 1.25731,0.33511 1.73439,0.4625 0.47712,0.12732 1.09749,0.30557 1.37813,0.39687 0.28065,0.0912 0.83054,0.2267 1.22345,0.3 0.39291,0.0733 1.45038,0.27141 2.34846,0.44219 0.89806,0.17074 2.1827,0.40642 2.85626,0.52344 0.67356,0.11704 1.73103,0.30465 2.34846,0.41562 2.36419,0.42483 6.61626,0.93083 10.06725,1.19844 1.32737,0.10291 2.46789,0.24178 2.5344,0.30938 l 0,0.002 c 0.16397,0.16531 58.83477,0.15569 58.83477,-0.0109 -8.77261,-20.44923 -17.46201,-41.79151 -26.29706,-63.33907 -3.3736,-1.13745 -6.40038,-2.282 -10.20632,-3.73281 l -37.21431,0 z"
     id="path4847"
     inkscape:connector-curvature="0" />
</svg>
