<?xml version="1.0" encoding="UTF-8" standalone="no"?>
<svg
   xmlns:dc="http://purl.org/dc/elements/1.1/"
   xmlns:cc="http://creativecommons.org/ns#"
   xmlns:rdf="http://www.w3.org/1999/02/22-rdf-syntax-ns#"
   xmlns:svg="http://www.w3.org/2000/svg"
   xmlns="http://www.w3.org/2000/svg"
   xmlns:sodipodi="http://sodipodi.sourceforge.net/DTD/sodipodi-0.dtd"
   xmlns:inkscape="http://www.inkscape.org/namespaces/inkscape"
   viewBox="0 0 171.67497 201.89838"
   height="201.89838"
   width="171.67497"
   version="1.1"
   id="svg4831"
   inkscape:version="0.91 r13725"
   sodipodi:docname="SUSI_Letter_A_Blue_Large.svg">
  <sodipodi:namedview
     pagecolor="#ffffff"
     bordercolor="#666666"
     borderopacity="1"
     objecttolerance="10"
     gridtolerance="10"
     guidetolerance="10"
     inkscape:pageopacity="0"
     inkscape:pageshadow="2"
     inkscape:window-width="1353"
     inkscape:window-height="968"
     id="namedview14"
     showgrid="false"
     fit-margin-top="0"
     fit-margin-left="0"
     fit-margin-right="0"
     fit-margin-bottom="0"
     inkscape:zoom="2.0770077"
     inkscape:cx="77.425973"
     inkscape:cy="63.158682"
     inkscape:window-x="135"
     inkscape:window-y="0"
     inkscape:window-maximized="0"
     inkscape:current-layer="svg4831" />
  <metadata
     id="metadata4837">
    <rdf:RDF>
      <cc:Work
         rdf:about="">
        <dc:format>image/svg+xml</dc:format>
        <dc:type
           rdf:resource="http://purl.org/dc/dcmitype/StillImage" />
        <dc:title></dc:title>
      </cc:Work>
    </rdf:RDF>
  </metadata>
  <defs
     id="defs4835" />
  <path
     inkscape:connector-curvature="0"
     style="fill:#0080c0"
     d="M 2.625,199.11385 C 1.18125,197.58856 0,196.2921 0,196.2328 25.293205,128.31711 48.12555,68.447266 70.575527,8.4750002 c 0.0667,-0.165 0.40005,-1.0087502 0.74075,-1.8750002 0.60306,-1.533297 0.64978,-1.600816 1.76423,-2.55 0.62962,-0.53625 1.49321,-1.27875 1.91909,-1.65 0.42588,-0.37125 1.23014,-1.063125 1.78725,-1.5375 L 77.799777,0 l 9.10176,0 9.10176,0 2.50724,2.5125 2.507243,2.5125 c 16.58592,50.218657 31.45036,94.116758 46.80721,139.63039 0,0.10883 -0.25788,0.46151 -0.57305,0.78374 -0.31518,0.32223 -1.18401,1.29462 -1.93071,2.16087 -0.74672,0.86625 -1.49002,1.69333 -1.65179,1.83798 -0.27803,0.24858 -1.56485,0.26089 -23.51544,0.225 -20.465213,-0.0335 -23.234793,-0.0647 -23.334783,-0.26298 -2.633053,-8.7874 -5.469018,-17.04923 -7.94423,-25.22916 0,-0.1202 -0.15622,-0.36531 -0.34716,-0.54469 -0.33083,-0.31079 -0.47887,-0.32615 -3.14416,-0.32615 -2.6396,0 -2.81334,0.0175 -3.08763,0.31197 -0.15986,0.17158 -0.3243,0.45846 -0.36543,0.6375 -9.016625,25.16585 -18.458569,51.83185 -27.484936,77.57553 L 29.847841,201.856 5.249999,201.8871 2.625,199.11384 Z m 125.8111,2.69726 c -0.0489,-0.0489 -0.88701,-0.14979 -1.8625,-0.22422 -2.53615,-0.19352 -5.66115,-0.55967 -7.39861,-0.86688 -0.45375,-0.0802 -1.23,-0.21513 -1.725,-0.29976 -0.495,-0.0846 -1.44,-0.2549 -2.1,-0.37838 -0.66,-0.12346 -1.43625,-0.26784 -1.725,-0.32083 -0.28875,-0.053 -0.69375,-0.15033 -0.9,-0.2163 -0.20625,-0.066 -0.66187,-0.19527 -1.0125,-0.28734 -0.35062,-0.0921 -0.92437,-0.2426 -1.275,-0.3345 -0.35062,-0.0919 -0.7725,-0.21804 -0.9375,-0.28032 -0.165,-0.0623 -0.7725,-0.26096 -1.35,-0.44151 -2.88933,-0.90336 -6.15457,-2.24918 -9.269353,-3.82049 -5.05406,-2.54962 -7.70519,-4.35675 -11.33243,-7.72473 -4.07689,-3.78547 -6.55579,-7.37904 -9.28204,-13.45581 -0.78041,-1.73949 -1.84835,-4.66717 -2.30631,-6.32254 -0.0742,-0.26813 -0.20685,-0.74063 -0.29484,-1.05 -0.088,-0.30938 -0.22299,-0.81563 -0.3,-1.125 -0.077,-0.30938 -0.21223,-0.84938 -0.30049,-1.2 -0.51109,-2.03048 -0.75562,-4.13244 -0.83474,-7.17536 l -0.0725,-2.78785 7.99634,-0.0995 c 4.39799,-0.0547 20.303323,-0.0995 35.345173,-0.0996 l 27.34883,-1.5e-4 c 2.79698,1.04917 5.02142,1.87744 7.50071,2.7 6.49291,15.58238 12.8796,31.01643 19.32663,45.80455 0,0.12053 -43.11838,0.12707 -43.23889,0.007 z"
     id="path4847"
     sodipodi:nodetypes="cccsssscccccccccscccsccccccccsccccccsccsssccccscssccccc" />
</svg>
