<?xml version="1.0" encoding="UTF-8" standalone="no"?>
<svg
   xmlns:dc="http://purl.org/dc/elements/1.1/"
   xmlns:cc="http://creativecommons.org/ns#"
   xmlns:rdf="http://www.w3.org/1999/02/22-rdf-syntax-ns#"
   xmlns:svg="http://www.w3.org/2000/svg"
   xmlns="http://www.w3.org/2000/svg"
   xmlns:sodipodi="http://sodipodi.sourceforge.net/DTD/sodipodi-0.dtd"
   xmlns:inkscape="http://www.inkscape.org/namespaces/inkscape"
   version="1.0"
   width="192.75591pt"
   height="59.527557pt"
   viewBox="0 0 192.75591 59.527558"
   preserveAspectRatio="xMidYMid meet"
   id="svg2"
   inkscape:version="0.91 r13725"
   sodipodi:docname="SUSI.AI_logo_bluewhite.svg">
  <metadata
     id="metadata22">
    <rdf:RDF>
      <cc:Work
         rdf:about="">
        <dc:format>image/svg+xml</dc:format>
        <dc:type
           rdf:resource="http://purl.org/dc/dcmitype/StillImage" />
        <dc:title></dc:title>
      </cc:Work>
    </rdf:RDF>
  </metadata>
  <defs
     id="defs20" />
  <sodipodi:namedview
     pagecolor="#ffffff"
     bordercolor="#666666"
     borderopacity="1"
     objecttolerance="10"
     gridtolerance="10"
     guidetolerance="10"
     inkscape:pageopacity="0"
     inkscape:pageshadow="2"
     inkscape:window-width="1364"
     inkscape:window-height="715"
     id="namedview18"
     showgrid="false"
     fit-margin-top="0"
     fit-margin-left="0"
     fit-margin-right="0"
     fit-margin-bottom="0"
     inkscape:zoom="1.8645366"
     inkscape:cx="103.4386"
     inkscape:cy="48.065626"
     inkscape:window-x="0"
     inkscape:window-y="0"
     inkscape:window-maximized="0"
     inkscape:current-layer="svg2" />
  <rect
     style="fill:#0080c0;fill-opacity:1;stroke:#0d5ce2;stroke-width:0.20126386;stroke-miterlimit:4;stroke-dasharray:none;stroke-opacity:1"
     id="rect4184"
     width="192.55464"
     height="59.326294"
     x="0.10063193"
     y="0.10063193" />
  <g
     id="g4271"
     transform="matrix(0.65209115,0,0,0.65209115,4.050574,1.7846426)">
    <path
       d="m 33.89505,16.408705 c -5.116363,0.63 -10.347273,3.207272 -14.49,7.14 -2.252727,2.11909 -3.894545,4.371818 -5.364545,7.330909 -1.699091,3.398181 -2.443637,6.128182 -2.615455,9.736364 l -0.05727,1.145455 7.445454,0 7.445455,0 0.05727,-0.763637 c 0.133637,-2.31 1.298182,-4.600909 3.283637,-6.586364 1.622727,-1.603637 3.092727,-2.558182 4.944545,-3.188182 l 1.26,-0.42 15.520909,-0.01909 15.501818,0 0,-7.254545 0,-7.254546 -16.17,0.01909 c -8.915454,0.01909 -16.437272,0.07636 -16.761818,0.114546 z"
       id="path6"
       inkscape:connector-curvature="0"
       style="fill:#ffffff;fill-opacity:1;stroke:#0d5ce2;stroke-width:0.19090909;stroke-miterlimit:4;stroke-dasharray:none;stroke-opacity:1" />
    <path
       d="m 70.492323,17.095977 -0.820909,0.820909 0.05727,19.663637 c 0.07636,21.610909 0,20.217273 1.221819,22.641819 2.061818,4.066363 6.700909,7.99909 10.72909,9.029999 1.622728,0.439091 18.919097,0.42 20.560907,0 3.57,-0.935454 7.48364,-3.951818 9.83182,-7.57909 0.64909,-0.973637 1.35546,-2.329091 1.58455,-3.016364 l 0.42,-1.240909 0.0954,-19.720909 0.0955,-19.72091 -0.85909,-0.84 -0.87819,-0.859091 -6.01363,0 -6.01364,0 -0.897273,0.916364 -0.897273,0.916364 0,17.754546 0,17.754545 -0.63,0.610909 -0.63,0.610909 -5.536363,0 -5.536364,0 -0.496364,-0.515454 -0.515454,-0.534546 -0.133637,-17.983636 -0.133636,-17.983637 -0.820909,-0.763636 -0.801818,-0.782728 -6.09,0 -6.09,0 -0.801818,0.820909 z"
       id="path8"
       inkscape:connector-curvature="0"
       style="fill:#ffffff;fill-opacity:1;stroke:#0d5ce2;stroke-width:0.19090909;stroke-miterlimit:4;stroke-dasharray:none;stroke-opacity:1" />
    <path
       d="m 139.37232,16.389614 c -6.03272,0.916363 -10.71,3.302727 -15.08182,7.693636 -4.42909,4.448182 -6.93,9.640909 -7.42636,15.444546 -0.0954,1.126364 -0.13364,2.1 -0.0764,2.176364 0.0382,0.09545 3.37909,0.152727 7.40727,0.152727 l 7.33091,0 0.11454,-0.916364 c 0.61091,-4.42909 4.06637,-8.419091 8.53364,-9.793637 1.06909,-0.343636 2.02364,-0.362727 16.53273,-0.362727 l 15.40636,0 -0.0573,-7.254545 -0.0382,-7.254546 -16.09364,0.01909 c -8.83909,0.01909 -16.28454,0.05727 -16.55182,0.09546 z"
       id="path10"
       inkscape:connector-curvature="0"
       style="fill:#ffffff;fill-opacity:1;stroke:#0d5ce2;stroke-width:0.19090909;stroke-miterlimit:4;stroke-dasharray:none;stroke-opacity:1" />
    <path
       d="m 175.47323,17.496886 -0.78273,1.221819 0,24.130909 0,24.111818 0.91637,1.279091 0.89727,1.298182 6.03273,0 6.03272,0 0.89728,-1.336364 0.87818,-1.336363 0,-23.997273 0,-24.016364 -0.89727,-1.279091 -0.91637,-1.298182 -6.12818,0 -6.12818,0 -0.80182,1.221818 z"
       id="path12"
       inkscape:connector-curvature="0"
       style="fill:#ffffff;fill-opacity:1;stroke:#0d5ce2;stroke-width:0.19090909;stroke-miterlimit:4;stroke-dasharray:none;stroke-opacity:1" />
    <path
       d="m 52.031414,43.995069 c -0.03818,0.133636 -0.171818,0.801818 -0.286364,1.47 -0.649091,3.722727 -3.703636,7.254545 -7.636364,8.858182 l -1.05,0.42 -15.845454,0.09545 -15.845454,0.09546 -0.05727,7.216363 -0.03818,7.216364 17.029091,-0.05727 17.048182,-0.05727 1.832727,-0.515454 c 11.015454,-3.111818 19.11,-12.867273 19.491818,-23.539091 l 0.05727,-1.336363 -7.311819,-0.05727 c -5.746363,-0.03818 -7.311818,0 -7.388181,0.190909 z"
       id="path14"
       inkscape:connector-curvature="0"
       style="fill:#ffffff;fill-opacity:1;stroke:#0d5ce2;stroke-width:0.19090909;stroke-miterlimit:4;stroke-dasharray:none;stroke-opacity:1" />
    <path
       d="m 157.41323,43.995069 c -0.0382,0.133636 -0.17182,0.782727 -0.28636,1.431818 -0.63,3.665455 -3.58909,7.120909 -7.52182,8.82 l -1.16455,0.496364 -15.84545,0.09545 -15.84545,0.09546 -0.0573,7.197272 -0.0382,7.216364 16.39909,0 c 17.88818,0 17.44909,0.01909 21.01909,-1.126364 5.04,-1.622727 10.17546,-5.421818 13.32546,-9.87 2.90181,-4.066363 4.79181,-9.564545 4.58181,-13.344545 l -0.0573,-1.145454 -7.21636,-0.05727 c -5.67,-0.03818 -7.21636,0 -7.29273,0.190909 z"
       id="path16"
       inkscape:connector-curvature="0"
       style="fill:#ffffff;fill-opacity:1;stroke:#0d5ce2;stroke-width:0.19090909;stroke-miterlimit:4;stroke-dasharray:none;stroke-opacity:1" />
    <path
       style="fill:#ffffff;fill-opacity:1;stroke:#0d5ce2;stroke-width:0.19090909;stroke-miterlimit:4;stroke-dasharray:none;stroke-opacity:1"
       d="m 230.24371,16.239117 -0.26311,0.227898 c -0.14471,0.12523 -0.35381,0.307673 -0.46444,0.405682 -0.11063,0.09801 -0.33489,0.293944 -0.49845,0.435511 -0.28951,0.250576 -0.30154,0.268473 -0.4582,0.673252 -0.0885,0.228683 -0.17506,0.451611 -0.1924,0.495171 -5.83191,15.832183 -11.76315,31.637082 -18.33366,49.566263 0,0.01565 0.30686,0.357991 0.6819,0.760655 l 0.68191,0.732315 6.38984,-0.0084 6.38983,-0.0081 c 2.34482,-6.796106 4.79747,-13.83588 7.13975,-20.479463 0.0107,-0.04726 0.0533,-0.122942 0.0949,-0.168239 0.0712,-0.07774 0.11642,-0.08233 0.80213,-0.08233 0.69237,0 0.7308,0.0039 0.81674,0.08591 0.0496,0.04735 0.0904,0.112333 0.0904,0.144077 0.643,2.159432 1.37962,4.340242 2.06361,6.660043 0.026,0.05234 0.74539,0.06066 6.06171,0.0695 5.70219,0.0095 6.03662,0.0063 6.10884,-0.05936 0.042,-0.03819 0.23497,-0.256645 0.42896,-0.485325 0.19396,-0.228684 0.41984,-0.485276 0.50172,-0.570343 0.0819,-0.08506 0.14886,-0.178275 0.14886,-0.207016 -3.98932,-12.015224 -7.85091,-23.603951 -12.1595,-36.861266 l -0.65119,-0.663109 -0.65148,-0.663409 -2.36431,0 -2.3643,0 z m 10.31274,40.470043 c -3.90749,3.4e-5 -8.03941,0.0118 -9.18189,0.02625 l -2.07705,0.02625 0.0187,0.736193 c 0.0205,0.803307 0.0841,1.358148 0.21685,1.894175 0.0229,0.09256 0.0581,0.235118 0.0782,0.316791 0.02,0.08167 0.055,0.215132 0.0778,0.296804 0.0229,0.08167 0.0574,0.206631 0.0767,0.277416 0.11896,0.437003 0.39625,1.209751 0.59898,1.668962 0.70822,1.604218 1.35208,2.552773 2.41114,3.552102 0.94225,0.889121 1.63098,1.366367 2.9439,2.039446 0.80913,0.414811 1.65728,0.770056 2.40786,1.008536 0.15001,0.04766 0.30793,0.100197 0.35079,0.116634 0.0429,0.01644 0.15264,0.04972 0.24372,0.07398 0.0911,0.02426 0.24003,0.06398 0.33111,0.0883 0.0911,0.02431 0.20952,0.05834 0.26309,0.07577 0.0536,0.01741 0.15855,0.04328 0.23356,0.05727 0.075,0.01399 0.2769,0.05181 0.44835,0.08442 0.17146,0.0326 0.4167,0.07759 0.54529,0.09993 0.12858,0.02234 0.33047,0.05816 0.44834,0.07935 0.45134,0.0811 1.26311,0.177704 1.92193,0.228793 0.2534,0.01965 0.47115,0.04616 0.48384,0.05906 l 0,3.82e-4 c 0.0313,0.03156 11.23208,0.02972 11.23208,-0.0021 -1.67477,-3.903942 -3.33365,-7.978377 -5.02033,-12.092002 -0.64405,-0.21715 -1.2219,-0.435655 -1.94848,-0.712627 l -7.10455,0 z"
       id="path4847"
       inkscape:connector-curvature="0" />
    <path
       style="fill:#ffffff;fill-opacity:1;stroke:#0d5ce2;stroke-width:0.19090909;stroke-miterlimit:4;stroke-dasharray:none;stroke-opacity:1"
       d="m 195.89878,69.537436 c -0.47424,-0.714709 -0.94874,-1.34381 -1.54464,-2.245095 l 0.0169,-8.384668 c 0.63688,-1.004711 1.01286,-1.284731 1.60762,-2.198059 3.41914,0.0035 6.54726,0.04928 9.71272,0.04928 0.61242,0.931742 0.78042,1.282663 1.4906,2.417404 -0.009,2.668741 0.0192,5.338081 -0.0225,8.006351 -0.55299,0.801412 -0.81587,1.41646 -1.48487,2.325315 -3.59125,-0.0075 -6.7638,0.03889 -9.77585,0.02947 z"
       id="path4199"
       inkscape:connector-curvature="0" />
    <path
       style="fill:#ffffff;fill-opacity:1;stroke:#0d5ce2;stroke-width:0.19090909;stroke-miterlimit:4;stroke-dasharray:none;stroke-opacity:1"
       inkscape:connector-curvature="0"
       id="path4254"
       d="m 257.02959,17.496886 -0.78272,1.221819 0,24.130909 0,24.111818 0.91636,1.279091 0.89727,1.298182 6.03273,0 6.03273,0 0.89727,-1.336364 0.87818,-1.336363 0,-23.997273 0,-24.016364 -0.89727,-1.279091 -0.91636,-1.298182 -6.12819,0 -6.12818,0 -0.80182,1.221818 z" />
  </g>
</svg>
